#!OML:ASF H:\Pregnant\Project 1\Capture day 1\Session 1\femalepreg.ASF
:FULLY-SPECIFIED
:DEGREES
2080
root 4.68431 11.3034 21.7208 -94.0127 -4.955 -196.707
lowerback 6.66066 -4.18683 3.72166
upperback 12.3358 -7.48569 5.04
thorax 9.77189 -4.06505 3.12536
lowerneck -9.23 -0.387962 -0.717191
upperneck 40.3993 3.99908 0.403818
head 15.8476 1.72509 0.952894
rclavicle 5.63058e-014 -4.32108e-014
rhumerus 88.3467 -21.5412 -58.4002
rradius 19.4778
rwrist 32.499
rhand -44.7305 349.514
rfingers 7.12502
rthumb -17.5243 -39.7157
lclavicle 5.63058e-014 -4.32108e-014
lhumerus 76.4773 20.3464 25.5071
lradius 31.6453
lwrist 34.3629
lhand -47.1325 -5.12702
lfingers 7.12502
lthumb -19.8346 23.8809
rfemur -135.03 -35.2324 11.7009
rtibia 1.90833e-014
rfoot 43.0737 -37.7334
rtoes 43.2143
lfemur -50.8725 -33.6421 0.428861
ltibia 2.8625e-014
lfoot -27.7159 27.2586
ltoes -27.6806
2081
root 4.69173 11.3011 21.7264 -93.9747 -4.99519 -196.832
lowerback 6.65565 -4.19418 3.75719
upperback 12.3311 -7.49422 5.05376
thorax 9.76796 -4.06603 3.12047
lowerneck -9.25784 -0.393271 -0.645944
upperneck 40.3594 3.95037 0.419244
head 15.8342 1.71908 0.939406
rclavicle 7.15625e-015 -3.14328e-014
rhumerus 88.376 -21.6419 -58.512
rradius 19.4962
rwrist 32.4669
rhand -44.828 349.548
rfingers 7.12502
rthumb -17.6181 -39.6733
lclavicle 7.15625e-015 -3.14328e-014
lhumerus 76.5392 20.3808 25.4293
lradius 31.6447
lwrist 34.3736
lhand -47.0685 -4.82669
lfingers 7.12502
lthumb -19.7731 24.1876
rfemur -135.065 -35.3696 11.724
rtibia -3.49861e-014
rfoot 43.0814 -37.7579
rtoes 43.2156
lfemur -51.0079 -33.7222 0.544584
ltibia 7.95139e-014
lfoot -27.7594 27.2782
ltoes -27.5905
2082
root 4.69898 11.2989 21.7316 -93.939 -5.03775 -196.958
lowerback 6.65533 -4.20433 3.79387
upperback 12.3293 -7.5071 5.06669
thorax 9.76473 -4.06914 3.11433
lowerneck -9.28688 -0.396097 -0.566741
upperneck 40.3144 3.89886 0.439704
head 15.8183 1.71382 0.92615
rclavicle -6.4605e-015 2.94698e-014
rhumerus 88.4127 -21.7379 -58.631
rradius 19.5143
rwrist 32.4634
rhand -44.9367 349.555
rfingers 7.12502
rthumb -17.7228 -39.6569
lclavicle -6.4605e-015 2.94698e-014
lhumerus 76.6141 20.4226 25.3732
lradius 31.6335
lwrist 34.3553
lhand -46.9881 -4.49969
lfingers 7.12502
lthumb -19.6958 24.5225
rfemur -135.095 -35.5081 11.7494
rtibia 6.67916e-014
rfoot 43.07 -37.8006
rtoes 43.2369
lfemur -51.1403 -33.8042 0.660253
ltibia -9.54166e-015
lfoot -27.8036 27.3
ltoes -27.5472
2083
root 4.70594 11.2969 21.7368 -93.9054 -5.08372 -197.082
lowerback 6.66047 -4.21863 3.83654
upperback 12.33 -7.52565 5.07714
thorax 9.76048 -4.07443 3.10262
lowerneck -9.32214 -0.39808 -0.479051
upperneck 40.2704 3.84516 0.461296
head 15.8045 1.70896 0.911658
rclavicle 1.41137e-014 2.08724e-015
rhumerus 88.4543 -21.8254 -58.7551
rradius 19.5322
rwrist 32.5038
rhand -45.0627 349.509
rfingers 7.12502
rthumb -17.844 -39.692
lclavicle 1.41137e-014 2.08724e-015
lhumerus 76.7068 20.4689 25.356
lradius 31.6084
lwrist 34.2878
lhand -46.8852 -4.16124
lfingers 7.12502
lthumb -19.5969 24.8711
rfemur -135.121 -35.6459 11.7777
rtibia 5.40694e-014
rfoot 43.0471 -37.8496
rtoes 43.2662
lfemur -51.2692 -33.8872 0.776384
ltibia -5.40694e-014
lfoot -27.8575 27.3163
ltoes -27.4626
2084
root 4.7126 11.2951 21.7415 -93.8737 -5.13177 -197.205
lowerback 6.66813 -4.23634 3.8812
upperback 12.3341 -7.54957 5.08659
thorax 9.75853 -4.08222 3.08878
lowerneck -9.36007 -0.395736 -0.391222
upperneck 40.2207 3.79144 0.492661
head 15.7882 1.70545 0.901285
rclavicle -1.68967e-014 -2.16675e-014
rhumerus 88.4968 -21.9076 -58.8658
rradius 19.5497
rwrist 32.5786
rhand -45.2016 349.405
rfingers 7.12502
rthumb -17.9777 -39.7846
lclavicle -1.68967e-014 -2.16675e-014
lhumerus 76.8025 20.5251 25.3508
lradius 31.5794
lwrist 34.1971
lhand -46.7703 -3.80338
lfingers 7.12502
lthumb -19.4865 25.2401
rfemur -135.142 -35.7801 11.8045
rtibia -2.22639e-014
rfoot 43.0395 -37.8789
rtoes 43.2655
lfemur -51.3946 -33.9712 0.891324
ltibia 5.725e-014
lfoot -27.914 27.3323
ltoes -27.331
2085
root 4.71902 11.2935 21.7461 -93.8388 -5.18123 -197.325
lowerback 6.6732 -4.25672 3.92787
upperback 12.339 -7.57741 5.09552
thorax 9.75898 -4.09164 3.07296
lowerneck -9.39729 -0.391021 -0.305407
upperneck 40.1694 3.73826 0.530977
head 15.7705 1.70269 0.894262
rclavicle -2.18663e-014 -1.20265e-014
rhumerus 88.5442 -21.9809 -58.983
rradius 19.5665
rwrist 32.7006
rhand -45.3559 349.246
rfingers 7.12502
rthumb -18.1261 -39.9296
lclavicle -2.18663e-014 -1.20265e-014
lhumerus 76.8955 20.5887 25.3523
lradius 31.551
lwrist 34.0918
lhand -46.6543 -3.44596
lfingers 7.12502
lthumb -19.3749 25.6088
rfemur -135.164 -35.9124 11.8349
rtibia -2.8625e-014
rfoot 43.0331 -37.9082
rtoes 43.2652
lfemur -51.5227 -34.0533 1.00814
ltibia 4.77083e-014
lfoot -27.9603 27.3577
ltoes -27.1923
2086
root 4.72517 11.2921 21.7506 -93.7994 -5.23414 -197.443
lowerback 6.67462 -4.27789 3.97801
upperback 12.3436 -7.60652 5.10584
thorax 9.76094 -4.10133 3.05641
lowerneck -9.43431 -0.384482 -0.228937
upperneck 40.12 3.68541 0.582889
head 15.7534 1.7003 0.894801
rclavicle 3.23025e-014 -2.6339e-015
rhumerus 88.5898 -22.0504 -59.0911
rradius 19.5827
rwrist 32.8453
rhand -45.517 349.048
rfingers 7.12502
rthumb -18.2811 -40.1129
lclavicle 3.23025e-014 -2.6339e-015
lhumerus 76.9823 20.6563 25.3537
lradius 31.5272
lwrist 33.9829
lhand -46.5518 -3.12122
lfingers 7.12502
lthumb -19.2764 25.9434
rfemur -135.192 -36.0414 11.871
rtibia 2.8625e-014
rfoot 43.0415 -37.9236
rtoes 43.2519
lfemur -51.6553 -34.1318 1.13027
ltibia -9.54166e-015
lfoot -28.0015 27.3859
ltoes -27.0144
2087
root 4.7311 11.2909 21.7548 -93.7581 -5.28573 -197.555
lowerback 6.67568 -4.2974 4.02759
upperback 12.3472 -7.63313 5.11615
thorax 9.76198 -4.10982 3.04021
lowerneck -9.46671 -0.377812 -0.162367
upperneck 40.0717 3.63109 0.647391
head 15.7351 1.69741 0.902178
rclavicle -1.61016e-014 1.95803e-014
rhumerus 88.6344 -22.1171 -59.2015
rradius 19.5968
rwrist 33.0115
rhand -45.6816 348.842
rfingers 7.12502
rthumb -18.4395 -40.3045
lclavicle -1.61016e-014 1.95803e-014
lhumerus 77.0677 20.7221 25.3625
lradius 31.5075
lwrist 33.8746
lhand -46.4656 -2.8477
lfingers 7.12502
lthumb -19.1935 26.2252
rfemur -135.221 -36.1642 11.9066
rtibia 9.54166e-015
rfoot 43.0621 -37.9285
rtoes 43.2276
lfemur -51.7868 -34.2058 1.2503
ltibia 2.22639e-014
lfoot -28.0318 27.4215
ltoes -26.8492
2088
root 4.73683 11.2898 21.7588 -93.7143 -5.33649 -197.664
lowerback 6.67587 -4.31438 4.07696
upperback 12.3497 -7.65616 5.12772
thorax 9.7622 -4.11663 3.0255
lowerneck -9.49763 -0.374016 -0.0993895
upperneck 40.0298 3.57615 0.710952
head 15.72 1.69335 0.909732
rclavicle -5.82439e-014 1.08338e-014
rhumerus 88.6728 -22.1848 -59.3005
rradius 19.61
rwrist 33.1717
rhand -45.8402 348.64
rfingers 7.12502
rthumb -18.592 -40.4913
lclavicle -5.82439e-014 1.08338e-014
lhumerus 77.1476 20.7864 25.365
lradius 31.4955
lwrist 33.7895
lhand -46.4027 -2.64295
lfingers 7.12502
lthumb -19.133 26.4359
rfemur -135.253 -36.2835 11.9435
rtibia -7.31528e-014
rfoot 43.0873 -37.9297
rtoes 43.2034
lfemur -51.9189 -34.2764 1.36978
ltibia 8.5875e-014
lfoot -28.0424 27.4716
ltoes -26.7355
